<svg id="Layer_1" data-name="Layer 1" xmlns="http://www.w3.org/2000/svg" viewBox="0 0 261.32 64.27"><defs><style>.cls-1{fill:#fff;}</style></defs><path class="cls-1" d="M45.62,16.17l2.89-4.36H43.12l-.95,1.43a11.41,11.41,0,0,0-2.52-1,28.58,28.58,0,0,0-7.31-.83,28.61,28.61,0,0,0-7.32.83,11,11,0,0,0-5.23,3,14.3,14.3,0,0,0-3.16,6.3,42.87,42.87,0,0,0-1.08,10.65A43.81,43.81,0,0,0,16.6,42.84,14.91,14.91,0,0,0,19,48.2l-2.86,4.32h5.39l.95-1.43a11.93,11.93,0,0,0,2.52,1,29.6,29.6,0,0,0,7.32.8,29.47,29.47,0,0,0,7.31-.8,10.74,10.74,0,0,0,5.23-3A13.93,13.93,0,0,0,48,42.84a44.59,44.59,0,0,0,1-10.62,44.83,44.83,0,0,0-1-10.65A15.49,15.49,0,0,0,45.62,16.17ZM24.11,39a44.06,44.06,0,0,1-.41-6.79,42.08,42.08,0,0,1,.46-7,10,10,0,0,1,1.49-4.05,5,5,0,0,1,2.67-1.9,14.2,14.2,0,0,1,4-.49,14.67,14.67,0,0,1,4.12.49,5,5,0,0,1,1.32.63L24.34,40.17A11.55,11.55,0,0,1,24.11,39Zm16.37,0a10,10,0,0,1-1.41,4,4.91,4.91,0,0,1-2.61,2,13.09,13.09,0,0,1-4.12.55A13.3,13.3,0,0,1,28.18,45a5.26,5.26,0,0,1-1.24-.6L40.29,24.23c.06.3.13.61.19.95a44.33,44.33,0,0,1,.44,7A42.09,42.09,0,0,1,40.48,39Z"/><path class="cls-1" d="M76.71,29.77a12.23,12.23,0,0,0-6.08-1.35h-4A5.81,5.81,0,0,1,63,27.49a3.66,3.66,0,0,1-1.21-3.08v-1.1a4.38,4.38,0,0,1,.77-2.81,3.88,3.88,0,0,1,2.23-1.35,14.25,14.25,0,0,1,3.32-.36c1.76,0,3.68.06,5.75.17s4,.22,5.64.33V12.85c-1-.22-2.17-.43-3.55-.63s-2.8-.38-4.29-.52a44.65,44.65,0,0,0-4.48-.23q-6.33,0-9.74,2.76T54,22.92v2c0,4.11,1,7,3.11,8.72s5,2.56,8.94,2.56h3.46a4.47,4.47,0,0,1,3.06,1A3.54,3.54,0,0,1,73.67,40v1.49a3.6,3.6,0,0,1-.82,2.5,4.43,4.43,0,0,1-2.34,1.27,16.25,16.25,0,0,1-3.61.35c-1.35,0-2.79,0-4.29-.05s-3-.09-4.34-.17-2.65-.16-3.75-.27v6.44c.85.22,1.78.41,2.81.57s2.12.32,3.27.44,2.3.22,3.41.28,2.21.08,3.28.08a26.76,26.76,0,0,0,7.4-.91,8.83,8.83,0,0,0,5-3.43c1.19-1.69,1.78-4.13,1.79-7.32V38.88a12,12,0,0,0-1.18-5.4A8.63,8.63,0,0,0,76.71,29.77Z"/><polygon class="cls-1" points="84.83 19.12 96 19.12 96 52.52 104.14 52.52 104.14 19.12 115.36 19.12 115.36 11.81 84.83 11.81 84.83 19.12"/><path class="cls-1" d="M129.67,44.85a2.52,2.52,0,0,1-1.3-1.13,4.46,4.46,0,0,1-.46-2.15V11.81h-8.15V42.89a12.36,12.36,0,0,0,1.08,5.59,6.48,6.48,0,0,0,3.24,3.08,13.06,13.06,0,0,0,5.31,1h15V45.15H131.54A5.39,5.39,0,0,1,129.67,44.85Z"/><path class="cls-1" d="M159.38,11.81,146.61,52.52H155L157.51,44h13.86L174,52.52h8.47l-12.8-40.71Zm.05,24.86,5-17.88,5,17.88Z"/><path class="cls-1" d="M200,11.83h-4.92a12.3,12.3,0,0,0-3.25.44,8.42,8.42,0,0,0-3,1.48,7.39,7.39,0,0,0-2.21,2.86,10.91,10.91,0,0,0-.82,4.51v31.4h8.14V36.9l16.12-.44V30l-16.12-.44V22.64a3.07,3.07,0,0,1,2.81-3.31,3,3,0,0,1,.6,0H212.7V12.52q-3.09-.33-6.42-.49C204.07,11.91,202,11.85,200,11.83Z"/><polygon class="cls-1" points="215.22 11.81 215.22 19.12 226.4 19.12 226.4 52.52 234.54 52.52 234.54 19.12 245.76 19.12 245.76 11.81 215.22 11.81"/></svg>