<svg id="Layer_1" data-name="Layer 1" xmlns="http://www.w3.org/2000/svg" viewBox="0 0 94.34 93.5"><defs><style>.cls-1{fill:#c8b197;}</style></defs><path class="cls-1" d="M58.26,19.57a6.54,6.54,0,0,1-.66-1.24L57.48,18l0,0,0-.08-1.87-5.63-.22-.64c-.07-.22-.15-.43-.22-.64L55,10.62,54.5,9.15l-.42-.07c-.51-.09-1-.16-1.52-.23l-1.12-.12.36,1.09c.31.89.61,1.79.91,2.69l.56,1.71,1.53,4.56a9.76,9.76,0,0,0,.65,1.54,9.56,9.56,0,0,0,.89,1.35,6.91,6.91,0,0,0,4.26,2.5l.53-1.35h0l.13-.32c.07-.19.14-.37.22-.56h0l.18-.46A4.23,4.23,0,0,1,58.26,19.57Z"/><path class="cls-1" d="M53.87,26.84a7.06,7.06,0,0,1-.41-1l-2.2-6.6c-.1-.29-.19-.57-.29-.85s-.19-.55-.28-.83c-.33-1-.68-2-1-3l-1-3.05c-.09-.29-.19-.57-.28-.85s-.19-.55-.28-.84l-.44-1.29h-.51l-1.43,0-1,0,.35,1,.71,2.11c.09.28.46,1.39.55,1.69.3.88.6,1.76.89,2.64l1.16,3.43c.1.33.22.67.32.94l.24.76,1.85,5.52a2.57,2.57,0,0,0,.17.43l.06.14a8.75,8.75,0,0,0,.78,1.53,7,7,0,0,0,5.61,3.36l.17-.42q.09-.27.21-.54c.19-.48.37-.95.55-1.42l.16-.39c-.21,0-.42,0-.62,0A4.36,4.36,0,0,1,53.87,26.84Z"/><path class="cls-1" d="M49.56,34a.44.44,0,0,0-.06-.16v0L49,32.35l-1.62-4.82c-.14-.42-.28-.86-.43-1.3,0,0-.47-1.39-.55-1.65l-1.26-3.76-.84-2.51-.21-.61c-.09-.27-.18-.54-.28-.81l-.05-.17c-.42-1.27-.85-2.54-1.27-3.81-.27-.78-.83-2.46-.83-2.46-.08-.23-.16-.46-.23-.68L41.18,9l-.6.11c-.43.08-.87.17-1.35.28l-.77.17.31.94c.06.2.13.4.2.59s.18.55.27.81c.37,1.09.73,2.18,1.1,3.28.3.91.6,1.81.91,2.72l.15.46h0l.05.14c.08.26.17.53.26.79h0l.09.27v0l.13.38c0,.07,0,.14.07.22l.09.28.06.17L44,26l.12.37.14.43a4.49,4.49,0,0,0,.17.44l.19.58h0c0,.08,0,.16.08.24l.09.29.16.47L46.61,34l.11.33.13.41a7.3,7.3,0,0,0,.43,1l.06.14.51.88,0,.06a9.48,9.48,0,0,0,.69.91A6.91,6.91,0,0,0,54,40.15l.68,0a9.13,9.13,0,0,1,.19-1,10.43,10.43,0,0,1,.36-1.18l.17-.4.12-.33a5.88,5.88,0,0,1-1.52.22A4.61,4.61,0,0,1,49.56,34Z"/><path class="cls-1" d="M77.3,22.69c-.32-.4-.66-.8-1-1.19l-.77-.88-.66,1.68c-.31.8-.62,1.59-.94,2.38l0,.13v0l-.6,1.51-1.77,4.48A8.34,8.34,0,0,0,71,32.42a7.84,7.84,0,0,0-.2,1.62,6.84,6.84,0,0,0,1.65,4.65l.82-.44h0l.37-.21.12-.07.79-.42h0l.43-.23a4.27,4.27,0,0,1-1.37-3.65,7.29,7.29,0,0,1,.3-1.38c0-.05,0-.1,0-.15l0-.07.06-.19,2.07-5.23h0l.34-.92c.11-.26.22-.53.32-.8l.07-.16.06-.12v-.06L77.56,23Z"/><path class="cls-1" d="M63.31,24.86l.53-1.35c.07-.18.14-.37.22-.56l0-.05.26-.7c.16-.38.31-.77.46-1.15l.17-.42q.89-2.23,1.75-4.45l.8-2L67,13.83c-.44-.26-.83-.48-1.2-.68l-.71-.39L62,20.54l-.36.94-.18.46h0c-.08.19-.15.37-.22.56l-.13.32h0l-.53,1.35L59,28.25l-.17.41c0,.13-.1.26-.14.39l-.14.37-.16.39c-.18.47-.36.94-.55,1.42q-.12.27-.21.54l-.17.42-2,5-.12.33-.17.4a10.43,10.43,0,0,0-.36,1.18,9.13,9.13,0,0,0-.19,1A7.41,7.41,0,0,0,55,43.57,7.13,7.13,0,0,0,57.56,47l.09.06a8.62,8.62,0,0,1,.8-.64l.17-.12a6.35,6.35,0,0,1,.88-.57l.35-.2.32-.17a4.63,4.63,0,0,1-2.46-6.26v-.07a.3.3,0,0,0,0-.1l.57-1.43,1.88-4.75c.08-.21.17-.43.26-.65s.17-.45.24-.65l.46-1.15.2-.5q.87-2.19,1.72-4.37Z"/><path class="cls-1" d="M71.47,21.3l.66-1.65c.14-.39.3-.78.46-1.18l.18-.47-.39-.33c-.39-.34-.75-.64-1.11-.91l-.75-.6L70,17.48c-.29.74-.58,1.48-.88,2.22-.09.23-.18.46-.26.69s-.24.62-.37.93c-.77,2-1.57,4-2.37,6-.06.14-.11.29-.17.43l-.17.45-.3.73-2.14,5.44a2.3,2.3,0,0,0-.14.45l0,.13a8.7,8.7,0,0,0-.4,1.67,7,7,0,0,0,2.15,6.18l.38-.2c.13-.09.27-.16.4-.24l.13-.07.63-.33h0l.58-.31.06,0,.34-.22h0l0,0a4.38,4.38,0,0,1-1.91-4.94,7.32,7.32,0,0,1,.32-1l.18-.47,2.22-5.65a2.61,2.61,0,0,0,.15-.37l.65-1.62c.75-1.91,1.5-3.84,2.26-5.76Z"/><path class="cls-1" d="M75.3,47.48l.15-.08,1.47-.8.07,0L79.84,45l2.82-1.54c.37-.21.76-.41,1.13-.61l.41-.22.69-.37.7-.38-.07-.49c-.08-.5-.16-1-.24-1.45l-.18-1-1.47.8-1.76,1c-.5.29-1,.55-1.49.82h0c-1.93,1.06-3.92,2.13-5.71,3.1l-.39.22c-.14.08-.29.15-.43.24l-.68.36L68,48.27a2.59,2.59,0,0,0-.36.22l-.16.11,0,0a11.44,11.44,0,0,0-1.36,1,7.1,7.1,0,0,0-2.33,6.11l.45.09a5.46,5.46,0,0,1,.6.13L65,56l.45.08.19,0h0l.45.09.21,0h0l.33.07h.09a4.4,4.4,0,0,1,1.72-5.05,8.71,8.71,0,0,1,.9-.58l.45-.25,5.4-2.91Z"/><path class="cls-1" d="M84.86,46.3l-2.45,1.33,0,0-1.61.87-4.22,2.29a8.65,8.65,0,0,0-1.36.89,7.22,7.22,0,0,0-2.93,5.77l.9.19h0l.32.06h0l.24.05.88.18.47.1a4.28,4.28,0,0,1,1.32-3.71,7.67,7.67,0,0,1,1.09-.86l.16-.1.16-.1.06,0,5.19-2.83.64-.32.46-.26.46-.26,1.25-.67,0-.41c0-.57,0-1.09,0-1.57v-1.2Z"/><path class="cls-1" d="M67.13,44.76l.74-.41.67-.36.09-.06.18-.11,5.8-3.14.49-.27c.25-.14.5-.27.74-.42.51-.25,1-.52,1.49-.8L79,38.27l3.33-1.8.78-.43,1-.56L84,34.91c-.15-.46-.3-.89-.45-1.3l-.29-.77-.72.39c-.41.23-.83.45-1.27.67l-2,1.11-4.09,2.23-.13.07-.43.23h0l-.79.42-.12.07-.37.21h0l-.82.44L67.82,41.2l-.31.17,0,0h0l-.34.22-.06,0-.58.31h0l-.63.33-.13.07c-.13.08-.27.15-.4.24l-.38.2-4.74,2.56-.32.17-.35.2a6.35,6.35,0,0,0-.88.57l-.17.12a8.62,8.62,0,0,0-.8.64,7.06,7.06,0,0,0-2.39,4.51,7.53,7.53,0,0,0,.19,2.66l0,.11.4,0,.6,0h0l.21,0c.13,0,.27,0,.39,0l.26,0,.32,0h.06l.42.09h0l.34.07c-1.2-2.59-.43-4.9,2.14-6.38l0,0,.15-.1L66.64,45Z"/><path class="cls-1" d="M41.72,66.07V66l0,0v.1Z"/><path class="cls-1" d="M56.49,54.37Z"/><path class="cls-1" d="M76.65,64.79l-.24-.05-2.87-.59-3.44-.7-.5-.1-.48-.1-.76-.15-5.73-1.18a2,2,0,0,0-.46-.05H62a10.36,10.36,0,0,0-1.41-.11h-.29a7,7,0,0,0-5.72,3.18l.3.36.3.38.06.09.47.58.44.54v0l.3.32a4.39,4.39,0,0,1,4.25-2.73h.31a5.89,5.89,0,0,1,1,.13l.52.11,6,1.23a1,1,0,0,1,.22,0l0,0h.05l1.72.34,2.81.57,3.49.7.86.19.87.18.81.16.26-.4c.26-.4.52-.82.78-1.25l.51-.86-2.91-.59C77.64,65,77.13,64.88,76.65,64.79Z"/><path class="cls-1" d="M82.88,59.64l-.81-.16-4-.82-.21,0-.1,0-.26-.06-1.36-.26-.94-.2-.14,0L74.6,58l-.88-.18-.24-.05h0l-.32-.06h0l-.9-.19L69.69,57l-2.88-.59-.1,0h-.09l-.33-.07h0l-.21,0-.45-.09h0l-.19,0L65,56l-.14,0a5.46,5.46,0,0,0-.6-.13l-.45-.09-5.26-1.08-.34-.07h0l-.42-.09H57.7l-.32,0-.26,0c-.13,0-.26,0-.39,0l-.21,0h0l-.6,0-.4,0a8.3,8.3,0,0,0-1.08.12,7,7,0,0,0-5.26,4.05,8.11,8.11,0,0,1,.64.55.87.87,0,0,1,.14.12l.14.13a9.59,9.59,0,0,1,.73.79l.25.33.22.27a4.48,4.48,0,0,1,4.54-3.63A6.91,6.91,0,0,1,57,57.2l.14,0,1.57.32,4.95,1,1.2.25.23.05c.49.09,1.07.2,1.67.34l6,1.21,1.15.24.13,0,.67.13.27.05.73.16,7,1.42.23-.54c.16-.38.33-.81.52-1.29l.29-.79Z"/><path class="cls-1" d="M74.12,70.69h0l-1.8-.37-4.73-1a10,10,0,0,0-1.63-.2h-.39a8.16,8.16,0,0,0-1.25.09A6.94,6.94,0,0,0,60,71.67l.58.73.06.08.24.3.07.09.51.64.28.34h0l.06.07a4.3,4.3,0,0,1,3.37-2h.45a6.52,6.52,0,0,1,1,.07h.18l.22,0,5.86,1.2.64.13L75,73.7l.27-.28c.35-.37.7-.76,1.07-1.18l.81-.92L76,71.07Z"/><path class="cls-1" d="M41.68,66.55a1.21,1.21,0,0,1,0,.18v.16l0,.57h0v-.12l.06-1.27h0Z"/><path class="cls-1" d="M41.68,66.55a1.21,1.21,0,0,1,0,.18v.16l0,.57h0v-.12l.06-1.27h0Z"/><path class="cls-1" d="M52.87,82.93l-1.11-1.39-3-3.78a11.32,11.32,0,0,0-1.12-1.2,8.17,8.17,0,0,0-1.32-1,6.86,6.86,0,0,0-4.86-.89v.17c0,.26,0,.52,0,.77h0l0,1.08v.37c0,.17,0,.34,0,.5a4.23,4.23,0,0,1,3.86.64,7.25,7.25,0,0,1,1,.92l.15.17a.87.87,0,0,1,.12.14l0,.05,3.69,4.63.4.51.14.18.27.33.38,0c.51-.05,1-.12,1.59-.2l1.22-.17L52.9,83Z"/><path class="cls-1" d="M58.51,79.92c-.68-.84-1.34-1.68-2-2.52l-2-2.52c-.21-.26-.41-.52-.6-.74l-.5-.64L49.78,69a5.46,5.46,0,0,0-.44-.48,9.45,9.45,0,0,0-1.24-1.16,7,7,0,0,0-6.38-1.24l-.06,1.27v.12h0l0,1.6a4.69,4.69,0,0,1,2.11-.52,4.61,4.61,0,0,1,3.14,1.33,7.29,7.29,0,0,1,.75.82l.31.36,3.79,4.79L53,77.47c.86,1.1,1.73,2.18,2.59,3.27.48.59,1,1.18,1.42,1.78.19.24.38.47.56.71l.49.62.47-.14c.49-.14,1-.3,1.41-.45l.95-.32L59.6,81.29Z"/><path class="cls-1" d="M66.22,79.49,63.35,75.9l-.18-.23-1.29-1.62-.09-.12-.06-.07h0l-.28-.34-.51-.64-.07-.09-.24-.3-.06-.08L60,71.67l-3.28-4.12-.2-.26v0l0,0-.3-.32v0l-.44-.54-.47-.58-.06-.09-.3-.38-.3-.36-3.34-4.22-.22-.27-.25-.33a9.59,9.59,0,0,0-.73-.79l-.14-.13a.87.87,0,0,0-.14-.12,8.11,8.11,0,0,0-.64-.55A7.21,7.21,0,0,0,44.88,57h-.13a7.43,7.43,0,0,0-3.12.71c.07.33.12.66.16,1s.07.8.07,1.21l0,.45v.35a5.11,5.11,0,0,1,2.9-1,4.94,4.94,0,0,1,3.76,2l0,0,0,0a.47.47,0,0,1,.09.1l1,1.18,3.16,4c.29.38.58.74.88,1.12l.5.62.57.71c1.4,1.77,2.67,3.37,4,5,.13.15.25.31.37.47l.44.54.89,1.11c1.11,1.4,2.31,2.92,3.54,4.45l.4.48.51-.25L66,80.58l.79-.44Z"/><polygon class="cls-1" points="41.66 67.45 41.62 69.06 41.62 69.06 41.66 67.45 41.66 67.45"/><polygon class="cls-1" points="41.66 67.45 41.62 69.06 41.62 69.06 41.66 67.45 41.66 67.45"/><path class="cls-1" d="M28.5,68.92a6.9,6.9,0,0,0-3.17-3.82l-.6.68,0,0-.21.24-.14.18,0,0-.19.21-.13.14-.24.28-.34.38a4.25,4.25,0,0,1,2.55,3,5.79,5.79,0,0,1,.2,1.36c0,.09,0,.19,0,.29v.14L26,78.74l.33.22c.47.31.91.59,1.35.86l1.05.63,0-1.7L28.83,77,29,72.14a8.92,8.92,0,0,0-.09-1.63A9.72,9.72,0,0,0,28.5,68.92Z"/><path class="cls-1" d="M35.38,65.41a8.9,8.9,0,0,0-.22-1.69,6.89,6.89,0,0,0-4.11-5.07l-.31.34-.35.42,0,0,0,0c-.33.35-.66.73-1,1.1l-.19.21-.06.07,0,0a4.4,4.4,0,0,1,3.49,4A5.09,5.09,0,0,1,32.63,66v.49l-.16,6.07a2.83,2.83,0,0,0,0,.38c0,.57,0,1.17,0,1.74-.07,2.13-.13,4.3-.18,6.39v.08c0,.15,0,.29,0,.44l0,.59.45.19c.43.18.88.35,1.36.53l.93.36,0-1.43L35,80.06l.17-6.41c0-.17,0-.34,0-.51s0-.32,0-.49l0-.79.15-5.8a3,3,0,0,0,0-.44C35.39,65.56,35.38,65.5,35.38,65.41Z"/><path class="cls-1" d="M41.79,58.69c0-.35-.09-.68-.16-1a7.06,7.06,0,0,0-5-5.46l-.22-.06,0,0h0a7,7,0,0,1-.56.93,8.21,8.21,0,0,1-.71,1l0,0-.29.31-.22.25a4.61,4.61,0,0,1,4.45,5.05,1.41,1.41,0,0,0,0,.18l0,1.53-.14,5.09,0,.67c0,.24,0,.48,0,.73v.06q0,.85,0,1.65c-.07,2-.12,3.89-.17,6l0,.6c0,.58,0,1.1,0,1.62,0,.83,0,1.65-.07,2.48s0,1.93-.08,2.89l0,1.07.57.13c.44.1.9.2,1.37.28l.84.16V84c0-.45,0-.89,0-1.35L41.35,79V78.8c0-.4,0-.8,0-1.21,0-.16,0-.33,0-.5v-.37l0-1.08h0c0-.25,0-.51,0-.77V74.7c0-.19,0-.39,0-.6a2.44,2.44,0,0,1,0-.27c0-.11,0-.21,0-.29l.12-4.48h0l0-1.6h0l0-.57v-.16a1.21,1.21,0,0,0,0-.18V66l.14-5.28v-.35l0-.45C41.86,59.49,41.83,59.1,41.79,58.69Z"/><path class="cls-1" d="M28.67,16.85l1.49.92,4.09,2.5a8.81,8.81,0,0,0,1.47.75,7.66,7.66,0,0,0,1.57.48,7.16,7.16,0,0,0,1.38.13h0a6.93,6.93,0,0,0,3.49-.95l-.06-.17L42,20.23c0-.08,0-.15-.07-.22l-.13-.38v0l-.09-.27h0c-.09-.26-.18-.53-.26-.79l-.05-.14h0l-.15-.46a4.17,4.17,0,0,1-2.57.9,5,5,0,0,1-1.3-.19,6.15,6.15,0,0,1-1.28-.52l0,0L35.93,18,35.76,18l0,0-5.68-3.48-.45-.27-.46-.28-.61-.38-.37.22c-.47.27-.9.54-1.32.8l-1,.61,2.76,1.69Z"/><path class="cls-1" d="M24.36,21.59l2.11,1.29L29.86,25l.23.14c.19.11.39.23.6.37l5.62,3.44a2.69,2.69,0,0,0,.44.23l.13.06a7.15,7.15,0,0,0,1.58.67,7.73,7.73,0,0,0,2.3.37h0a6.88,6.88,0,0,0,4.14-1.39l-.16-.47-.09-.29c0-.08,0-.16-.08-.24h0l-.19-.58a4.49,4.49,0,0,1-.17-.44l-.14-.43L44,26a4.43,4.43,0,0,1-3.22,1.46,5.06,5.06,0,0,1-2-.44,7.07,7.07,0,0,1-.95-.48l-.45-.28L32.12,23.1l-.07,0-.23-.15c-.48-.3-1-.61-1.47-.89-2-1.24-3.79-2.34-5.51-3.38-.49-.31-1-.62-1.5-.93l-.44-.27-.4.34c-.35.3-.71.62-1.07,1l-.69.63,2.14,1.32C23.38,21,23.87,21.28,24.36,21.59Z"/><path class="cls-1" d="M47.34,35.85l-.06-.14a7.3,7.3,0,0,1-.43-1l-.13-.41L46.61,34a5.11,5.11,0,0,1-2.52,2,4.25,4.25,0,0,1-1.29.2A5.64,5.64,0,0,1,40,35.3l-.18-.09-1.3-.8-4.33-2.65-.36-.23-1.09-.67c-.3-.18-.6-.36-.89-.55l-.32-.2-5.64-3.43c-.46-.29-.94-.59-1.4-.86l-1.22-.76-.16-.1-1.21-.75-.2-.12-2.8-1.7-.63-.4-.4.48c-.26.32-.54.67-.84,1.07l-.49.63.68.41,2.23,1.36c1,.63,2.07,1.27,3.1,1.91l.49.3.26.17.37.22.2.13.05,0a4.52,4.52,0,0,1,.44.26l1.43.88,3.75,2.3q.24.16.48.3l.56.35h0l.3.19,0,0,.32.2.1.06,1.2.74.18.11.39.24,4.59,2.82.3.19.38.22a7.5,7.5,0,0,0,1.1.54,6.91,6.91,0,0,0,1,.37,7.62,7.62,0,0,0,2.38.4h.38a7.14,7.14,0,0,0,4.53-2.05l.1-.1Z"/><path class="cls-1" d="M36,44.64l-.17.07-.86.23-.26.07a9.37,9.37,0,0,1-.93.2l-.39.07-.37,0a4.64,4.64,0,0,1,.18,6.72l0,0,0,0a.1.1,0,0,1,0,.05v0l-1,1.16-3.37,3.82c-.31.36-.61.69-.93,1l0,0c-.19.24-.4.47-.6.7L26,60.16l-4,4.55-.27.29,0,0-.73.84-.43.49-.42.47-2.68,3-.39.45.37.46c.28.35.57.71.88,1.07l.53.62,2.8-3.16.05,0,.1-.11.61-.69,1-1.09.06-.06,0,0,.34-.38.24-.28.13-.14.19-.21,0,0,.14-.18.21-.24,0,0,.6-.68,1.74-2c.64-.72,1.29-1.44,1.91-2.15l.11-.11,0,0,.06-.07.19-.21c.31-.37.64-.75,1-1.1l0,0,0,0,.35-.42.31-.34,3.57-4,.22-.25.29-.31,0,0a8.21,8.21,0,0,0,.71-1,7.42,7.42,0,0,0,.11-8.4Z"/><path class="cls-1" d="M21.88,59.54l.52-.6,3.85-4.36a2,2,0,0,0,.31-.4.3.3,0,0,0,.07-.1,7.89,7.89,0,0,0,.93-1.44,7,7,0,0,0,.12-6.52l-.48.07h0l-.26,0-.29,0c-.54.1-1.06.18-1.51.24l-.4.06a4.38,4.38,0,0,1,.14,5.31l-.09.13a8.36,8.36,0,0,1-.57.73l-.35.39-4,4.54a3.39,3.39,0,0,0-.28.31c-.38.43-.75.86-1.15,1.3l-.08.09c-1.4,1.57-2.79,3.14-4.18,4.73l-.64.72.24.44c.21.38.44.79.72,1.25l.49.84.83-.93q.6-.66,1.17-1.32c1.42-1.62,2.84-3.22,4.29-4.85C21.44,60,21.65,59.78,21.88,59.54Z"/><path class="cls-1" d="M18.38,53.78a8.08,8.08,0,0,0,.73-1.43,6.82,6.82,0,0,0,.05-5l-1.83.27h0l-.25,0-.28,0h0l-.48.08a4.22,4.22,0,0,1,0,3.91,6.13,6.13,0,0,1-.75,1.2l-.43.54L11.8,57.25l-1,1.09.12.39c.18.53.35,1,.52,1.49l.41,1.12L13.07,60l0,0,4.31-4.85A10.28,10.28,0,0,0,18.38,53.78Z"/><path class="cls-1" d="M12.93,35.6l1.8-.26,4.74-.71a10.26,10.26,0,0,0,1.63-.37,8.3,8.3,0,0,0,1.48-.66,6.88,6.88,0,0,0,3.23-3.76L24.38,29a4.52,4.52,0,0,0-.44-.26l-.05,0-.2-.13-.37-.22a4.26,4.26,0,0,1-2.49,3.05,6.28,6.28,0,0,1-1.33.42l-.25.06-.18,0-5.87.87-.66.09-.83.12-.14.39c-.19.49-.36,1-.52,1.46l-.37,1.1,2.21-.33Z"/><path class="cls-1" d="M12.54,42l.2,0,3.19-.47,3.2-.47L19.6,41l.48-.08.77-.11,5.81-.86a3.25,3.25,0,0,0,.54-.14h.05a8.21,8.21,0,0,0,1.61-.49,7,7,0,0,0,4.28-4.93l-.39-.24L32.57,34l-1.2-.74-.1-.06L31,33l0,0-.3-.19h0a4.38,4.38,0,0,1-3.35,4.15,7.15,7.15,0,0,1-1,.24l-.49.08-6.06.9-.32.05c-.56.07-1.13.16-1.71.25h0l-3.18.48-3.2.47-.79.12-.64.09-.09.51c-.07.42-.14.88-.22,1.42l-.13.94L11,42.24C11.52,42.18,12,42.1,12.54,42Z"/><path class="cls-1" d="M39.51,38.12a7.5,7.5,0,0,1-1.1-.54L38,37.36l-.3-.19a4.63,4.63,0,0,1-4.15,5.26l-.19,0-1.54.22-5,.76-1.43.2-.83.13-.84.13L22,44.16l-4.93.75-.51.07-1,.15-.82.12-.84.13-4.76.72v.82c0,.39,0,.77,0,1.16l0,.79.79-.11,3.86-.57,1.73-.26.75-.11.48-.08h0l.28,0,.25,0h0l1.83-.27h.07l4.27-.63.37-.06.85-.13.4-.06c.45-.06,1-.14,1.51-.24l.29,0,.26,0h0l.48-.07L33,45.33l.37,0,.39-.07a9.37,9.37,0,0,0,.93-.2l.26-.07.86-.23.17-.07A7.08,7.08,0,0,0,40.4,39c0-.12,0-.23.05-.34v-.16A6.91,6.91,0,0,1,39.51,38.12Z"/></svg>