<svg id="Layer_1" data-name="Layer 1" xmlns="http://www.w3.org/2000/svg" viewBox="0 0 261.32 64.27"><defs><style>.cls-1{fill:#223638;}</style></defs><path class="cls-1" d="M45.62,16.17l2.89-4.36H43.12l-.95,1.43a11.4,11.4,0,0,0-2.52-1,28.9,28.9,0,0,0-7.31-.83,28.93,28.93,0,0,0-7.32.83,10.89,10.89,0,0,0-5.23,3,14.23,14.23,0,0,0-3.16,6.3,43,43,0,0,0-1.08,10.65A43.88,43.88,0,0,0,16.6,42.84,15,15,0,0,0,19,48.2l-2.86,4.32h5.39l.95-1.43a11.85,11.85,0,0,0,2.52,1,29.48,29.48,0,0,0,7.32.8,29.46,29.46,0,0,0,7.31-.8,10.74,10.74,0,0,0,5.23-3A13.87,13.87,0,0,0,48,42.84a44.46,44.46,0,0,0,1-10.62,44.73,44.73,0,0,0-1-10.65A15.43,15.43,0,0,0,45.62,16.17ZM24.11,39a44.48,44.48,0,0,1-.41-6.79,42.38,42.38,0,0,1,.46-7,10,10,0,0,1,1.49-4.05,5,5,0,0,1,2.67-1.9,14.16,14.16,0,0,1,4-.49,14.57,14.57,0,0,1,4.12.49,5,5,0,0,1,1.32.63L24.34,40.17C24.25,39.81,24.17,39.42,24.11,39Zm16.37,0a10,10,0,0,1-1.41,4A4.92,4.92,0,0,1,36.46,45a13.08,13.08,0,0,1-4.12.55A13.39,13.39,0,0,1,28.18,45a5.27,5.27,0,0,1-1.24-.6L40.29,24.23c.06.3.13.61.19.95a45.06,45.06,0,0,1,.44,7A42.71,42.71,0,0,1,40.48,39Z"/><path class="cls-1" d="M76.71,29.77a12.27,12.27,0,0,0-6.08-1.35h-4A5.78,5.78,0,0,1,63,27.49a3.65,3.65,0,0,1-1.21-3.08v-1.1a4.43,4.43,0,0,1,.77-2.81,3.86,3.86,0,0,1,2.23-1.35,13.9,13.9,0,0,1,3.32-.36c1.76,0,3.68.06,5.75.17s4,.22,5.64.33V12.85c-1-.22-2.17-.43-3.55-.63s-2.8-.38-4.29-.52a44.5,44.5,0,0,0-4.48-.23q-6.33,0-9.74,2.76t-3.41,8.69v2c0,4.11,1,7,3.11,8.72s5,2.56,8.94,2.56h3.46a4.44,4.44,0,0,1,3.06,1,3.56,3.56,0,0,1,1.07,2.78v1.49a3.57,3.57,0,0,1-.82,2.5,4.42,4.42,0,0,1-2.34,1.27,15.82,15.82,0,0,1-3.61.35c-1.35,0-2.79,0-4.29-.05s-2.95-.09-4.34-.17-2.65-.16-3.75-.27v6.44c.85.22,1.78.41,2.81.57s2.12.32,3.27.44,2.3.22,3.41.28,2.21.08,3.28.08a26.8,26.8,0,0,0,7.4-.91,8.83,8.83,0,0,0,5-3.43q1.78-2.53,1.79-7.32V38.88a12,12,0,0,0-1.18-5.4A8.65,8.65,0,0,0,76.71,29.77Z"/><polygon class="cls-1" points="84.83 19.12 96 19.12 96 52.52 104.14 52.52 104.14 19.12 115.36 19.12 115.36 11.81 84.83 11.81 84.83 19.12"/><path class="cls-1" d="M129.67,44.85a2.5,2.5,0,0,1-1.3-1.13,4.37,4.37,0,0,1-.46-2.15V11.81h-8.15V42.89a12.36,12.36,0,0,0,1.08,5.59,6.44,6.44,0,0,0,3.24,3.08,13.13,13.13,0,0,0,5.31,1h15V45.15H131.54A5.43,5.43,0,0,1,129.67,44.85Z"/><path class="cls-1" d="M159.38,11.81,146.61,52.52H155L157.51,44h13.86L174,52.52h8.47L169.67,11.81Zm.05,24.86,5-17.88,5,17.88Z"/><path class="cls-1" d="M200,11.83l-4.92,0a12.28,12.28,0,0,0-3.25.44,8.43,8.43,0,0,0-3,1.48,7.31,7.31,0,0,0-2.21,2.86,10.92,10.92,0,0,0-.82,4.51V52.52h8.14V36.9l16.12-.44V30l-16.12-.44V22.64a3.07,3.07,0,0,1,3.41-3.3H212.7V12.52q-3.09-.33-6.42-.49C204.07,11.91,202,11.85,200,11.83Z"/><polygon class="cls-1" points="215.22 11.81 215.22 19.12 226.4 19.12 226.4 52.52 234.54 52.52 234.54 19.12 245.76 19.12 245.76 11.81 215.22 11.81"/></svg>